<?xml version="1.0" encoding="UTF-8"?><svg id="Layer_1" xmlns="http://www.w3.org/2000/svg" width="595.28" height="841.89" viewBox="0 0 595.28 841.89"><defs><style>.cls-1{fill:#62c6c0;}</style></defs><path class="cls-1" d="M46.86,84.2l.3-23.29,.15-11.4,.04-2.97c0-.76-.09-1.62,.06-2.36,.24-1.22,1.56-1.33,2.63-1.4,7.5-.49,15.09-.38,22.61-.49s15.63-.16,23.45-.16c3.78,0,7.58-.1,11.36,.11,1.35,.07,2.85,.12,4.11,.66,1.55,.65,1.57,2.4,1.76,3.86,.5,3.86,.52,7.8,.61,11.68s.14,7.63,.15,11.44-.02,7.63-.09,11.44c-.03,1.68,0,3.38-.14,5.06-.14,1.57-.59,2.53-2.23,2.79-3.46,.55-7.14,.35-10.64,.34-3.82-.01-7.64-.03-11.46-.04-8.66-.03-17.31-.06-25.97-.09-4.33-.01-8.66-.02-12.99-.04-.99,0-2.96,.24-3.33-.97-.23-.75-.05-1.66-.1-2.44-.06-.98-.26-1.81-.67-2.7s-1.75-1.14-2.57-.67c-.95,.54-1.09,1.65-.67,2.57,.59,1.29,.02,3.02,.44,4.41,.5,1.63,1.78,2.75,3.4,3.22s3.36,.34,5,.34c2.16,0,4.33,.01,6.49,.02,8.49,.03,16.98,.06,25.47,.09s16.74,.38,25.06-.08c3.47-.19,7.03-.61,8.16-4.47,.5-1.71,.42-3.58,.46-5.34,.05-2.07,.08-4.15,.1-6.22,.09-8.43,.05-16.87-.33-25.29-.1-2.1-.27-4.19-.56-6.27-.25-1.78-.58-3.6-1.97-4.88-2.58-2.39-6.89-2.22-10.16-2.26-16.94-.19-33.9,.06-50.84,.5-3.06,.08-7.32-.37-9.37,2.47-1.04,1.44-.94,3.22-.97,4.91l-.08,6.44c-.11,8.43-.22,16.85-.32,25.28l-.08,6.2c-.03,2.41,3.72,2.42,3.75,0h0Z"/><path class="cls-1" d="M46.27,44.17c1.97,2.14,4.2,4.05,6.35,6.01s4.4,3.99,6.62,5.96c4.45,3.94,8.99,7.77,13.7,11.39,2.04,1.57,4.38,3.9,6.99,4.37,2.88,.51,5.26-1.29,7.35-3,4.31-3.53,8.29-7.45,12.25-11.37,4.54-4.49,9.09-8.99,14.11-12.95,.8-.63,.65-1.99,0-2.65-.78-.79-1.86-.62-2.65,0-8.3,6.55-15.26,14.55-23.15,21.56-.94,.84-1.9,1.66-2.87,2.47s-2.03,1.77-3.26,2.15c-1.09,.34-1.91-.15-2.79-.77-1.2-.84-2.37-1.73-3.54-2.62-4.41-3.36-8.64-6.95-12.79-10.61-2.35-2.07-4.67-4.16-6.98-6.26s-4.62-4.07-6.7-6.32c-1.64-1.78-4.28,.88-2.65,2.65h0Z"/><path class="cls-1" d="M48.38,90.03c8.34-7.46,16.72-14.87,25.13-22.24,1.82-1.59-.84-4.24-2.65-2.65-8.42,7.37-16.79,14.78-25.13,22.24-1.8,1.61,.86,4.26,2.65,2.65h0Z"/><path class="cls-1" d="M114.22,87.55c-7.31-8.45-15.63-15.96-24.75-22.41-1.97-1.4-3.85,1.85-1.89,3.24,8.85,6.27,16.9,13.62,23.99,21.83,1.58,1.83,4.22-.83,2.65-2.65h0Z"/></svg>